<svg xmlns="http://www.w3.org/2000/svg" style="display: none">
<!--    adapts-->
    <symbol id="adapts" fill="none"><path stroke="#0C111F" stroke-linecap="round" stroke-width="5" d="M7.411 26.473a22.952 22.952 0 0 1 6.106-12.977A23.332 23.332 0 0 1 26.18 6.594a23.472 23.472 0 0 1 14.336 1.835 23.176 23.176 0 0 1 10.474 9.865m-9.588 1.61h9.006c1.387 0 2.512-1.115 2.512-2.489v-8.92M53.653 32.179a22.953 22.953 0 0 1-6.112 12.963 23.333 23.333 0 0 1-12.658 6.892c-4.851.91-9.868.267-14.326-1.834a23.175 23.175 0 0 1-10.473-9.854m9.58-1.622H10.66c-1.387 0-2.512 1.114-2.512 2.488v8.92"/>
    </symbol>
<!--workflow-->
    <symbol id="workflow" width="48" height="48" fill="none"><path stroke="#0C111F" stroke-linecap="round" stroke-linejoin="round" stroke-width="4" d="M30 17V4H4v26h13"/><path stroke="#0C111F" stroke-linecap="round" stroke-linejoin="round" stroke-width="4" d="M43 43V17H17v26h26ZM33 30H17m16 0-5-5 5 5Zm0 0-5 5 5-5ZM17 17v26"/>
    </symbol>
<!--    automation-->
    <symbol id="automation" width="48" height="48" fill="none"><path stroke="#0C111F" stroke-linecap="round" stroke-linejoin="round" stroke-width="4" d="M40 12v12H8M24 12v24M8 12v24"/><path stroke="#0C111F" stroke-linecap="round" stroke-linejoin="round" stroke-width="4" d="M44 8a4 4 0 1 1-8 0 4 4 0 0 1 8 0ZM28 8a4 4 0 1 1-8 0 4 4 0 0 1 8 0ZM12 8a4 4 0 1 1-8 0 4 4 0 0 1 8 0ZM28 40a4 4 0 1 1-8 0 4 4 0 0 1 8 0ZM12 40a4 4 0 1 1-8 0 4 4 0 0 1 8 0ZM40 44a4 4 0 1 0 0-8 4 4 0 0 0 0 8Z"/></symbol>
<!--    data-->
    <symbol id="data" width="48" height="48" fill="none"><path stroke="#0C111F" stroke-linecap="round" stroke-linejoin="round" stroke-width="4" d="M41 4H7a3 3 0 0 0-3 3v34a3 3 0 0 0 3 3h34a3 3 0 0 0 3-3V7a3 3 0 0 0-3-3Z"/><path stroke="#0C111F" stroke-linecap="round" stroke-width="4" d="M4 32h40"/><path stroke="#0C111F" stroke-linecap="round" stroke-linejoin="round" stroke-width="4" d="M10 38h1M26 38h12M44 37V27M4 37V27"/></symbol>
<!--    time-->
    <symbol id="time" width="48" height="48" fill="none"><path fill="#0C111F" d="M32 2a2 2 0 0 1-2 2h-4v2c0 .033 0 .066-.002.099C36.105 7.1 44 15.629 44 26c0 11.046-8.954 20-20 20S4 37.046 4 26C4 15.629 11.895 7.1 22.002 6.099A2.012 2.012 0 0 1 22 6V4h-4a2 2 0 1 1 0-4h12a2 2 0 0 1 2 2Zm-8 8c-8.837 0-16 7.163-16 16s7.163 16 16 16 16-7.163 16-16-7.163-16-16-16Zm15.414-3.414a2 2 0 0 1 2.829 0l3.171 3.171a2 2 0 1 1-2.828 2.829l-3.172-3.172a2 2 0 0 1 0-2.828ZM26 20a2 2 0 1 0-4 0v5.343a6 6 0 0 0 1.757 4.243l3.829 3.828a2 2 0 1 0 2.828-2.828l-3.828-3.829A2 2 0 0 1 26 25.343V20Z"/></symbol>
<!--  diagram  -->
    <symbol id="diagram" width="56" height="56" fill="none"><path fill="#0C111F" stroke="#0C111F" stroke-width=".5" d="M6.25 6.75a2.5 2.5 0 0 1 2.5 2.5v35h41a2.5 2.5 0 0 1 0 5H6.25a2.5 2.5 0 0 1-2.5-2.5V9.25a2.5 2.5 0 0 1 2.5-2.5Zm41.732 6.732a2.5 2.5 0 1 1 3.536 3.536l-15.75 15.75a2.5 2.5 0 0 1-3.536 0L25 25.535l-7.982 7.983a2.5 2.5 0 0 1-3.536-3.536l9.75-9.75a2.5 2.5 0 0 1 3.536 0L34 27.465l13.982-13.983Z"/></symbol>
    <symbol id="diagram-s" width="20" height="20" viewBox="0 0 20 20" fill="none" >
        <path fill-rule="evenodd" clip-rule="evenodd" d="M1.875 2.1875C1.875 1.66974 1.45526 1.25 0.9375 1.25C0.419733 1.25 0 1.66974 0 2.1875V17.8125C0 18.3302 0.419733 18.75 0.9375 18.75H19.0625C19.5802 18.75 20 18.3302 20 17.8125C20 17.2948 19.5802 16.875 19.0625 16.875H1.875V2.1875ZM19.7254 5.35041C20.0915 4.9843 20.0915 4.3907 19.7254 4.02459C19.3593 3.65848 18.7657 3.65848 18.3996 4.02459L12.5 9.92418L9.41291 6.83709C9.0468 6.47097 8.4532 6.47097 8.08709 6.83709L4.02459 10.8996C3.65848 11.2657 3.65848 11.8593 4.02459 12.2254C4.3907 12.5915 4.9843 12.5915 5.35041 12.2254L8.75 8.82582L11.8371 11.9129C12.0129 12.0887 12.2514 12.1875 12.5 12.1875C12.7486 12.1875 12.9871 12.0887 13.1629 11.9129L19.7254 5.35041Z" fill="#0C111F" />
    </symbol>
<!--   oper-platform -->
    <symbol id="oper-platform" width="20" height="20" fill="none"><g clip-path="url(#a)"><path stroke="#0C111F" stroke-linecap="round" stroke-linejoin="round" stroke-width="1.875" d="M15 8.823 19.063.937M9.2 11.072c.331-.458.615-.889.852-1.27.577-.928 1.599-1.497 2.636-1.336l4.31.668c1.438.223 2.364 1.734 1.974 3.218l-.168.638M9.2 11.071c-1.25 1.732-3.171 3.868-5.764 5.275 0 0 .903.98 4.063 1.762m1.701-7.037 9.604 1.918m0 0-1.599 6.073c-4.501 0-7.603-.433-9.706-.954m0 0s2.134-1.546 2.813-3.42m1.943 4.172s1.128-1.047 1.806-2.922M3.75.938S3.75 5 .937 5C3.75 5 3.75 9.063 3.75 9.063S3.75 5 6.563 5C3.75 5 3.75.937 3.75.937Z"/></g><defs><clipPath id="a"><path fill="#fff" d="M0 0h20v20H0z"/></clipPath></defs></symbol>
    <symbol width="20" height="20" viewBox="0 0 20 20" fill="none" id="oper-platform-s">
        <g clip-path="url(#clip0_2025_42)">
            <path d="M15 8.82289L19.0625 0.9375M9.2012 11.0714C9.53219 10.6127 9.81612 10.1824 10.053 9.80128C10.6302 8.87266 11.6517 8.30374 12.6892 8.46461L16.9996 9.13293C18.437 9.3558 19.3635 10.8667 18.9727 12.351L18.8048 12.9893M9.2012 11.0714C7.95111 12.8035 6.02989 14.9387 3.4375 16.3455C3.4375 16.3455 4.34005 17.3251 7.5 18.1079M9.2012 11.0714L18.8048 12.9893M18.8048 12.9893L17.206 19.0625C12.705 19.0625 9.6027 18.6288 7.5 18.1079M7.5 18.1079C7.5 18.1079 9.63449 16.5625 10.3125 14.6875M12.2559 18.8596C12.2559 18.8596 13.3845 17.8125 14.0625 15.9375M3.75 0.9375C3.75 0.9375 3.74996 5 0.9375 5C3.75004 5 3.75 9.0625 3.75 9.0625C3.75 9.0625 3.75 5 6.5625 5C3.75 5 3.75 0.9375 3.75 0.9375Z" stroke="#0C111F" stroke-width="1.875" stroke-linecap="round" stroke-linejoin="round" />
        </g>
        <defs>
            <clipPath id="clip0_2025_42">
                <rect width="20" height="20" fill="white" />
            </clipPath>
        </defs>
    </symbol>
<!--   smart-crm -->
    <symbol id="smart-crm" width="20" height="20" fill="none"><g clip-path="url(#a)"><path fill="#0C111F" d="M5.541 5.104c-.78 1.604-.768 4.009 1.007 6.967.264.441.499.787.71 1.099l.026.038c.282.417.558.825.749 1.294.117.287.197.585.245.915h3.444a3.87 3.87 0 0 1 .245-.915c.19-.469.467-.877.75-1.294l.025-.038c.211-.312.445-.658.71-1.099 1.775-2.958 1.787-5.363 1.007-6.967C13.677 3.496 12.011 2.5 10 2.5c-2.01 0-3.677.996-4.459 2.604Zm-1.499-.729C5.135 2.13 7.427.833 10 .833c2.573 0 4.865 1.296 5.958 3.542 1.094 2.25.898 5.262-1.077 8.554-.289.482-.545.86-.756 1.172l-.002.003c-.315.465-.494.735-.612 1.026-.108.265-.178.583-.178 1.12 0 .46-.373.833-.833.833h-5a.833.833 0 0 1-.833-.833c0-.537-.07-.855-.178-1.12-.118-.291-.297-.561-.612-1.026l-.002-.003c-.211-.312-.467-.69-.756-1.172-1.975-3.292-2.171-6.304-1.077-8.554Zm1.791 14.792c0-.46.373-.834.834-.834h6.666a.833.833 0 0 1 0 1.667H6.667a.833.833 0 0 1-.834-.833ZM9.167 10A.833.833 0 0 0 7.5 10v.833a2.5 2.5 0 0 0 5 0V10a.833.833 0 0 0-1.667 0v.833a.833.833 0 0 1-1.666 0V10Z"/></g><defs><clipPath id="a"><path fill="#fff" d="M0 0h20v20H0z"/></clipPath></defs></symbol>
    <symbol width="20" height="20" viewBox="0 0 20 20" fill="none" id="smart-crm-s">
        <g clip-path="url(#clip0_2025_33)">
            <path d="M5.54102 5.10418C4.7606 6.70837 4.77289 9.113 6.54789 12.0713C6.81244 12.5122 7.04653 12.8582 7.25758 13.17L7.2835 13.2082C7.56573 13.625 7.84213 14.0331 8.0328 14.5018C8.14969 14.7891 8.23037 15.0866 8.27848 15.4167H11.7215C11.7696 15.0866 11.8503 14.7891 11.9672 14.5018C12.1578 14.0331 12.4342 13.625 12.7164 13.2083L12.7165 13.2082L12.7165 13.2082L12.7424 13.17C12.9534 12.8582 13.1875 12.5122 13.4521 12.0713C15.2271 9.113 15.2394 6.70836 14.459 5.10418C13.6768 3.49639 12.0106 2.50004 10 2.50004C7.98944 2.50004 6.32321 3.49639 5.54102 5.10418ZM4.04231 4.37506C5.13516 2.12869 7.42729 0.833374 10 0.833374C12.5727 0.833374 14.8648 2.12869 15.9577 4.37507C17.0523 6.62505 16.8563 9.63708 14.8812 12.9288C14.5922 13.4106 14.3363 13.7886 14.1249 14.1008L14.1249 14.1008L14.1225 14.1043C13.808 14.5689 13.6293 14.839 13.511 15.1298C13.4032 15.3946 13.3333 15.7128 13.3333 16.25C13.3333 16.7103 12.9602 17.0834 12.4999 17.0834H7.50003C7.03979 17.0834 6.66669 16.7103 6.66669 16.25C6.66669 15.7128 6.59672 15.3946 6.48899 15.1298C6.37066 14.839 6.19196 14.5689 5.87742 14.1043L5.87508 14.1008L5.87506 14.1008C5.66371 13.7886 5.40781 13.4106 5.11874 12.9288C3.14369 9.63708 2.9477 6.62505 4.04231 4.37506ZM5.8333 19.1667C5.8333 18.7065 6.2064 18.3334 6.66663 18.3334H13.3333C13.7935 18.3334 14.1666 18.7065 14.1666 19.1667C14.1666 19.6269 13.7935 20 13.3333 20H6.66663C6.2064 20 5.8333 19.6269 5.8333 19.1667ZM9.16663 10C9.16663 9.5398 8.79354 9.16671 8.3333 9.16671C7.87306 9.16671 7.49997 9.5398 7.49997 10V10.8334C7.49997 12.2141 8.61925 13.3334 9.99997 13.3334C11.3807 13.3334 12.5 12.2141 12.5 10.8334V10C12.5 9.5398 12.1269 9.16671 11.6666 9.16671C11.2064 9.16671 10.8333 9.5398 10.8333 10V10.8334C10.8333 11.2936 10.4602 11.6667 9.99997 11.6667C9.53973 11.6667 9.16663 11.2936 9.16663 10.8334V10Z" fill="#0C111F" />
        </g>
        <defs>
            <clipPath id="clip0_2025_33">
                <rect width="20" height="20" fill="white" />
            </clipPath>
        </defs>
    </symbol>
<!--   checked -->
    <symbol id="checked" width="24" height="24" fill="none"><path stroke="#F3F0F0" stroke-linecap="round" stroke-linejoin="round" stroke-width="2" d="M12 22c5.523 0 10-4.477 10-10S17.523 2 12 2 2 6.477 2 12s4.477 10 10 10Z"/><path stroke="#F3F0F0" stroke-linecap="round" stroke-linejoin="round" stroke-width="2" d="m9 12 2 2 4-4"/></symbol>
<!--    teams-->
    <symbol width="60" height="60" viewBox="0 0 60 60" fill="none" id="teams">
<g clip-path="url(#clip0_7_1222)">
<path d="M48.7501 31.4292L30.0001 49.9992L11.2501 31.4292C10.0134 30.2258 9.03925 28.7793 8.38901 27.1808C7.73878 25.5824 7.42655 23.8666 7.47199 22.1416C7.51743 20.4165 7.91955 18.7196 8.65304 17.1576C9.38652 15.5956 10.4355 14.2024 11.7339 13.0657C13.0322 11.929 14.5519 11.0734 16.1972 10.5529C17.8424 10.0324 19.5777 9.85818 21.2936 10.0412C23.0095 10.2243 24.6689 10.7606 26.1673 11.6165C27.6658 12.4724 28.9708 13.6292 30.0001 15.0142C31.034 13.6393 32.3405 12.4925 33.8379 11.6457C35.3353 10.7989 36.9914 10.2703 38.7025 10.093C40.4136 9.9157 42.1428 10.0935 43.7821 10.6152C45.4213 11.1369 46.9352 11.9914 48.229 13.1251C49.5228 14.2589 50.5687 15.6474 51.3012 17.204C52.0337 18.7605 52.437 20.4514 52.4859 22.171C52.5348 23.8906 52.2283 25.6017 51.5855 27.1973C50.9427 28.793 49.9774 30.2388 48.7501 31.4442" stroke="#0C111F" stroke-width="5" stroke-linecap="round" stroke-linejoin="round"/>
<path d="M30.0002 15L21.7677 23.2325C21.2991 23.7013 21.0358 24.3371 21.0358 25C21.0358 25.6629 21.2991 26.2987 21.7677 26.7675L23.1252 28.125C24.8502 29.85 27.6502 29.85 29.3752 28.125L31.8752 25.625C33.3671 24.1332 35.3905 23.2951 37.5002 23.2951C39.61 23.2951 41.6334 24.1332 43.1252 25.625L48.7502 31.25" stroke="#0C111F" stroke-width="5" stroke-linecap="round" stroke-linejoin="round"/>
<path d="M31.25 38.75L36.25 43.75" stroke="#0C111F" stroke-width="5" stroke-linecap="round" stroke-linejoin="round"/>
<path d="M37.5 32.5L42.5 37.5" stroke="#0C111F" stroke-width="5" stroke-linecap="round" stroke-linejoin="round"/>
</g>
<defs>
<clipPath id="clip0_7_1222">
<rect width="60" height="60" fill="white"/>
</clipPath>
</defs>
</symbol>
<!--   modern -->
    <symbol id="modern" width="60" height="60" fill="none"><path fill="#0C111F" d="M23.84 32.5h-5.517A7.5 7.5 0 0 1 3.75 30a7.5 7.5 0 0 1 7.5-7.5 7.507 7.507 0 0 1 7.075 5h5.515l8.66-15h7.925c1.03-2.912 3.81-5 7.075-5A7.5 7.5 0 0 1 55 15a7.5 7.5 0 0 1-14.572 2.5h-5.043L28.17 29.997 35.388 42.5h5.04A7.501 7.501 0 0 1 55 45a7.5 7.5 0 0 1-14.572 2.5H32.5l-8.66-15Zm23.66 10a2.5 2.5 0 0 0 0 5 2.5 2.5 0 0 0 0-5Zm-36.25-15a2.5 2.5 0 0 0 0 5 2.5 2.5 0 0 0 0-5Zm36.25-15a2.5 2.5 0 0 0 0 5 2.5 2.5 0 0 0 0-5Z"/></symbol>
<!--   ai -->
    <symbol id="ai" width="56" height="56" fill="none"><path fill="#0C111F" fill-rule="evenodd" d="M30.857 11.796c-.475-.114-1.006-.13-2.83-.13h-5.16c-1.999 0-3.358.003-4.408.088-1.023.084-1.546.236-1.91.421a4.666 4.666 0 0 0-2.04 2.04c-.186.365-.338.888-.421 1.91-.086 1.051-.088 2.41-.088 4.409V28H9.333v-7.563c0-1.878 0-3.428.104-4.691.107-1.312.337-2.517.914-3.65a9.333 9.333 0 0 1 4.079-4.079c1.132-.577 2.338-.807 3.65-.914C19.341 7 20.891 7 22.77 7h5.495c1.482 0 2.601-.001 3.681.258a9.334 9.334 0 0 1 2.698 1.118c.947.58 1.738 1.372 2.785 2.42l.168.168 5.106 5.106.168.168c1.048 1.047 1.84 1.838 2.42 2.785a9.337 9.337 0 0 1 1.118 2.698c.26 1.08.258 2.199.258 3.68V35.564c0 1.878 0 3.429-.103 4.691-.108 1.312-.337 2.518-.914 3.65a9.334 9.334 0 0 1-4.08 4.079c-1.132.577-2.337.807-3.649.914C36.658 49 35.108 49 33.23 49h-2.897v-4.666h2.8c2 0 3.358-.002 4.408-.088 1.023-.084 1.546-.235 1.911-.421a4.667 4.667 0 0 0 2.04-2.04c.185-.364.337-.888.42-1.91.086-1.05.088-2.41.088-4.408v-9.828c0-1.823-.015-2.354-.129-2.829a4.67 4.67 0 0 0-.559-1.349c-.255-.416-.62-.802-1.909-2.091l-5.106-5.106c-1.289-1.29-1.675-1.654-2.091-1.91a4.665 4.665 0 0 0-1.35-.558Z" clip-rule="evenodd"/><path fill="#0C111F" fill-rule="evenodd" d="m12.893 38.56 2.112-6.336h2.657l2.112 6.336 6.335 2.112v2.656l-6.335 2.112-2.112 6.336h-2.657l-2.112-6.336-6.336-2.112v-2.656l6.336-2.112ZM32.667 11.667V21H42v4.667H30.333A2.333 2.333 0 0 1 28 23.333V11.668h4.667Z" clip-rule="evenodd"/></symbol>
<!--  interface  -->
    <symbol id="interface" width="60" height="60" fill="none"><path stroke="#0C111F" stroke-linecap="round" stroke-linejoin="round" stroke-width="5" d="M6.25 10a2.5 2.5 0 0 1 2.5-2.5h42.5a2.5 2.5 0 0 1 2.5 2.5v30a2.5 2.5 0 0 1-2.5 2.5H8.75a2.5 2.5 0 0 1-2.5-2.5V10Z"/><path stroke="#0C111F" stroke-linecap="round" stroke-linejoin="round" stroke-width="5" d="M6.25 32.5a2.5 2.5 0 0 1 2.5-2.5h42.5a2.5 2.5 0 0 1 2.5 2.5V40a2.5 2.5 0 0 1-2.5 2.5H8.75a2.5 2.5 0 0 1-2.5-2.5v-7.5ZM27.5 15l-5 6.25M35 17.5l-3.75 5"/><path fill="#494C61" stroke="#0C111F" stroke-width="1.25" d="M30 34.375a1.875 1.875 0 1 1 0 3.75 1.875 1.875 0 0 1 0-3.75Z"/><path stroke="#0C111F" stroke-linecap="round" stroke-linejoin="round" stroke-width="5" d="m21.25 42.5-3.75 10h25l-3.75-10"/></symbol>
<!--  avatar  -->
    <symbol width="72" height="72" viewBox="0 0 72 72" fill="none" id="avatar">
        <path d="M72 36C72 16.1177 55.8823 0 36 0C16.1177 0 0 16.1177 0 36C0 55.8823 16.1177 72 36 72C55.8823 72 72 55.8823 72 36Z" fill="#494C61" />
        <path fill-rule="evenodd" clip-rule="evenodd" d="M14.6037 58.3459C19.4563 51.6243 27.3579 47.25 36.2812 47.25C45.0625 47.25 52.8544 51.4862 57.7249 58.0264C52.1386 63.5366 44.4665 66.9375 36.0001 66.9375C27.6983 66.9375 20.1603 63.6677 14.6037 58.3459ZM48.375 28.9687C48.375 35.9586 42.9605 41.625 36.2812 41.625C29.6021 41.625 24.1875 35.9586 24.1875 28.9687C24.1875 21.9789 29.6021 16.3125 36.2812 16.3125C42.9605 16.3125 48.375 21.9789 48.375 28.9687Z" fill="#F3F0F0" />
    </symbol>
</svg>
